<?xml version="1.0" encoding="UTF-8"?>
<svg width="38px" height="30px" viewBox="0 0 38 30" version="1.1" xmlns="http://www.w3.org/2000/svg" xmlns:xlink="http://www.w3.org/1999/xlink">
    <!-- Generator: Sketch 43.1 (39012) - http://www.bohemiancoding.com/sketch -->
    <title>15-fog</title>
    <desc>Created with Sketch.</desc>
    <defs></defs>
    <g id="Page-1" stroke="none" stroke-width="1" fill="none" fill-rule="evenodd">
        <g id="Artboard" transform="translate(-909.000000, -107.000000)" stroke="#FFFFFF" stroke-width="2">
            <g id="15-fog" transform="translate(910.000000, 108.000000)">
                <path d="M6,10 C6,4.477 10.477,0 16,0 C21.523,0 26,4.477 26,10" id="Stroke-367"></path>
                <path d="M30,22 C33.313,22 36,19.313 36,16 C36,12.687 33.313,10 30,10 L26,10" id="Stroke-369" stroke-linecap="round"></path>
                <path d="M12,16 C12,12.687 9.313,10 6,10 C2.687,10 0,12.687 0,16 C0,19.313 2.687,22 6,22" id="Stroke-371" stroke-linecap="round"></path>
                <path d="M24,20 L10,20" id="Stroke-373" stroke-linecap="round"></path>
                <path d="M16,28 L2,28" id="Stroke-375" stroke-linecap="round"></path>
                <path d="M24,20 C25.104,20 26,19.104 26,18 C26,16.896 25.104,16 24,16 L20,16" id="Stroke-377" stroke-linecap="round"></path>
                <path d="M20,24 L24,24 C25.104,24 26,24.896 26,26 C26,27.104 25.104,28 24,28 L20,28" id="Stroke-379" stroke-linecap="round"></path>
                <path d="M24,24 L10,24" id="Stroke-381" stroke-linecap="round"></path>
            </g>
        </g>
    </g>
</svg>
