<?xml version="1.0" encoding="UTF-8"?>
<svg width="39px" height="35px" viewBox="0 0 39 35" version="1.1" xmlns="http://www.w3.org/2000/svg" xmlns:xlink="http://www.w3.org/1999/xlink">
    <!-- Generator: Sketch 43.1 (39012) - http://www.bohemiancoding.com/sketch -->
    <title>25-rain-thunder-moon</title>
    <desc>Created with Sketch.</desc>
    <defs></defs>
    <g id="Page-1" stroke="none" stroke-width="1" fill="none" fill-rule="evenodd">
        <g id="Artboard" transform="translate(-394.000000, -338.000000)" stroke="#FFFFFF" stroke-width="2">
            <g id="25-rain-thunder-moon" transform="translate(395.000000, 340.000000)">
                <path d="M6,14 C6,8.477 10.478,4 16,4 C21.522,4 26,8.477 26,14" id="Stroke-221"></path>
                <path d="M30,26 C33.313,26 36,23.313 36,20 C36,16.687 33.313,14 30,14 L26,14" id="Stroke-223" stroke-linecap="round"></path>
                <path d="M12,20 C12,16.687 9.313,14 6,14 C2.687,14 0,16.687 0,20 C0,23.313 2.687,26 6,26" id="Stroke-225" stroke-linecap="round"></path>
                <polyline id="Stroke-227" stroke-linecap="round" stroke-linejoin="round" points="24 20 22 26 26 26 24 32"></polyline>
                <path d="M10,24 L10,32" id="Stroke-433" stroke-linecap="round"></path>
                <path d="M18,24 L18,32" id="Stroke-433" stroke-linecap="round"></path>
                <path d="M14,24 L14,29" id="Stroke-435" stroke-linecap="round"></path>
                <path d="M32.928,14.375 C35.056,12.938 36.455,10.503 36.455,7.741 C36.455,7.653 36.445,7.569 36.442,7.482 C35.806,7.646 35.142,7.741 34.455,7.741 C30.124,7.741 26.606,4.298 26.469,0 C23.963,0.642 21.929,2.462 21,4.836" id="Stroke-571"></path>
            </g>
        </g>
    </g>
</svg>