<?xml version="1.0" encoding="UTF-8"?>
<svg width="38px" height="29px" viewBox="0 0 38 29" version="1.1" xmlns="http://www.w3.org/2000/svg" xmlns:xlink="http://www.w3.org/1999/xlink">
    <!-- Generator: Sketch 43.1 (39012) - http://www.bohemiancoding.com/sketch -->
    <title>48-heavy-sleet</title>
    <desc>Created with Sketch.</desc>
    <defs></defs>
    <g id="Page-1" stroke="none" stroke-width="1" fill="none" fill-rule="evenodd">
        <g id="Artboard" transform="translate(-576.000000, -470.000000)" stroke="#FFFFFF" stroke-width="2">
            <g id="48-heavy-sleet" transform="translate(577.000000, 471.000000)">
                <path d="M6,10 C6,4.478 10.478,0 16,0 C21.522,0 26,4.478 26,10" id="Stroke-544"></path>
                <path d="M30,22 C33.313,22 36,19.313 36,16 C36,12.687 33.313,10 30,10 L26,10" id="Stroke-546" stroke-linecap="round"></path>
                <path d="M12,16 C12,12.687 9.313,10 6,10 C2.687,10 0,12.687 0,16 C0,19.313 2.687,22 6,22" id="Stroke-548" stroke-linecap="round"></path>
                <path d="M25,22 C25,23.657 23.657,25 22,25 C20.343,25 19,23.657 19,22 C19,20.343 20.343,19 22,19 C23.657,19 25,20.343 25,22 Z" id="Stroke-550" stroke-linecap="round"></path>
                <path d="M22,17 L22,19" id="Stroke-552" stroke-linecap="round"></path>
                <path d="M17.2373,19.25 L18.9683,20.25" id="Stroke-554" stroke-linecap="round"></path>
                <path d="M17.2373,24.75 L18.9683,23.75" id="Stroke-556" stroke-linecap="round"></path>
                <path d="M22,27 L22,25" id="Stroke-558" stroke-linecap="round"></path>
                <path d="M26.7627,24.75 L25.0317,23.75" id="Stroke-560" stroke-linecap="round"></path>
                <path d="M26.7627,19.25 L25.0317,20.25" id="Stroke-562" stroke-linecap="round"></path>
                <path d="M10,20 L10,27" id="Stroke-433" stroke-linecap="round"></path>
                <path d="M14,20 L14,24" id="Stroke-435" stroke-linecap="round"></path>
            </g>
        </g>
    </g>
</svg>