<?xml version="1.0" encoding="UTF-8"?>
<svg width="38px" height="29px" viewBox="0 0 38 29" version="1.1" xmlns="http://www.w3.org/2000/svg" xmlns:xlink="http://www.w3.org/1999/xlink">
    <!-- Generator: Sketch 43.1 (39012) - http://www.bohemiancoding.com/sketch -->
    <title>46-drizzle</title>
    <desc>Created with Sketch.</desc>
    <defs></defs>
    <g id="Page-1" stroke="none" stroke-width="1" fill="none" fill-rule="evenodd">
        <g id="Artboard" transform="translate(-461.000000, -470.000000)" stroke="#FFFFFF" stroke-width="2">
            <g id="46-drizzle" transform="translate(462.000000, 471.000000)">
                <path d="M6,10 C6,4.478 10.477,0 16,0 C21.523,0 26,4.478 26,10" id="Stroke-576"></path>
                <path d="M30,22 C33.313,22 36,19.313 36,16 C36,12.687 33.313,10 30,10 L26,10" id="Stroke-578" stroke-linecap="round"></path>
                <path d="M12,16 C12,12.687 9.313,10 6,10 C2.687,10 0,12.687 0,16 C0,19.313 2.687,22 6,22" id="Stroke-580" stroke-linecap="round"></path>
                <path d="M16,19 L16,21" id="Stroke-584" stroke-linecap="round"></path>
                <path d="M16,25 L16,27" id="Stroke-586" stroke-linecap="round"></path>
                <path d="M22,19 L22,21" id="Stroke-588" stroke-linecap="round"></path>
                <path d="M22,25 L22,27" id="Stroke-590" stroke-linecap="round"></path>
            </g>
        </g>
    </g>
</svg>