<?xml version="1.0" encoding="UTF-8"?>
<svg width="39px" height="34px" viewBox="0 0 39 34" version="1.1" xmlns="http://www.w3.org/2000/svg" xmlns:xlink="http://www.w3.org/1999/xlink">
    <!-- Generator: Sketch 43.1 (39012) - http://www.bohemiancoding.com/sketch -->
    <title>44-light-snow-moon</title>
    <desc>Created with Sketch.</desc>
    <defs></defs>
    <g id="Page-1" stroke="none" stroke-width="1" fill="none" fill-rule="evenodd">
        <g id="Artboard" transform="translate(-332.000000, -514.000000)" stroke="#FFFFFF" stroke-width="2">
            <g id="44-light-snow-moon" transform="translate(333.000000, 516.000000)">
                <path d="M6,14 C6,8.478 10.478,4 16,4 C21.522,4 26,8.478 26,14" id="Stroke-544"></path>
                <path d="M30,26 C33.313,26 36,23.313 36,20 C36,16.687 33.313,14 30,14 L26,14" id="Stroke-546" stroke-linecap="round"></path>
                <path d="M12,20 C12,16.687 9.313,14 6,14 C2.687,14 0,16.687 0,20 C0,23.313 2.687,26 6,26" id="Stroke-548" stroke-linecap="round"></path>
                <path d="M23,26 C23,27.657 21.657,29 20,29 C18.343,29 17,27.657 17,26 C17,24.343 18.343,23 20,23 C21.657,23 23,24.343 23,26 Z" id="Stroke-550" stroke-linecap="round"></path>
                <path d="M20,21 L20,23" id="Stroke-552" stroke-linecap="round"></path>
                <path d="M15.2373,23.25 L16.9683,24.25" id="Stroke-554" stroke-linecap="round"></path>
                <path d="M15.2373,28.75 L16.9683,27.75" id="Stroke-556" stroke-linecap="round"></path>
                <path d="M20,31 L20,29" id="Stroke-558" stroke-linecap="round"></path>
                <path d="M24.7627,28.75 L23.0317,27.75" id="Stroke-560" stroke-linecap="round"></path>
                <path d="M24.7627,23.25 L23.0317,24.25" id="Stroke-562" stroke-linecap="round"></path>
                <path d="M32.928,14.375 C35.056,12.938 36.455,10.503 36.455,7.741 C36.455,7.653 36.446,7.569 36.443,7.482 C35.806,7.646 35.143,7.741 34.455,7.741 C30.124,7.741 26.606,4.298 26.468,0 C23.963,0.642 21.929,2.462 21,4.836" id="Stroke-624"></path>
            </g>
        </g>
    </g>
</svg>