<?xml version="1.0" encoding="UTF-8"?>
<svg width="42px" height="39px" viewBox="0 0 42 39" version="1.1" xmlns="http://www.w3.org/2000/svg" xmlns:xlink="http://www.w3.org/1999/xlink">
    <!-- Generator: Sketch 43.1 (39012) - http://www.bohemiancoding.com/sketch -->
    <title>42-light-sleet-sun</title>
    <desc>Created with Sketch.</desc>
    <defs></defs>
    <g id="Page-1" stroke="none" stroke-width="1" fill="none" fill-rule="evenodd">
        <g id="Artboard" transform="translate(-198.000000, -463.000000)" stroke="#FFFFFF" stroke-width="2">
            <g id="42-light-sleet-sun" transform="translate(199.000000, 464.000000)">
                <path d="M19.9209,8.7988 C21.3889,7.0858 23.5669,5.9998 25.9999,5.9998 C30.4179,5.9998 33.9999,9.5818 33.9999,13.9998 C33.9999,15.7008 33.4689,17.2788 32.5639,18.5748" id="Stroke-536"></path>
                <path d="M26,0 L26,2" id="Stroke-538" stroke-linecap="round"></path>
                <path d="M40,14 L38,14" id="Stroke-540" stroke-linecap="round"></path>
                <path d="M35.8994,4.1006 L34.4854,5.5146" id="Stroke-542" stroke-linecap="round"></path>
                <path d="M6,18 C6,12.478 10.478,8 16,8 C21.522,8 26,12.478 26,18" id="Stroke-544"></path>
                <path d="M30,30 C33.313,30 36,27.313 36,24 C36,20.687 33.313,18 30,18 L26,18" id="Stroke-546" stroke-linecap="round"></path>
                <path d="M12,24 C12,20.687 9.313,18 6,18 C2.687,18 0,20.687 0,24 C0,27.313 2.687,30 6,30" id="Stroke-548" stroke-linecap="round"></path>
                <path d="M24,32 C24,33.657 22.657,35 21,35 C19.343,35 18,33.657 18,32 C18,30.343 19.343,29 21,29 C22.657,29 24,30.343 24,32 Z" id="Stroke-550" stroke-linecap="round"></path>
                <path d="M21,27 L21,29" id="Stroke-552" stroke-linecap="round"></path>
                <path d="M16.2373,29.25 L17.9683,30.25" id="Stroke-554" stroke-linecap="round"></path>
                <path d="M16.2373,34.75 L17.9683,33.75" id="Stroke-556" stroke-linecap="round"></path>
                <path d="M21,37 L21,35" id="Stroke-558" stroke-linecap="round"></path>
                <path d="M25.7627,34.75 L24.0317,33.75" id="Stroke-560" stroke-linecap="round"></path>
                <path d="M25.7627,29.25 L24.0317,30.25" id="Stroke-562" stroke-linecap="round"></path>
                <path d="M12,28 L12,30" id="Stroke-592" stroke-linecap="round"></path>
                <path d="M12,34 L12,36" id="Stroke-594" stroke-linecap="round"></path>
            </g>
        </g>
    </g>
</svg>