<?xml version="1.0" encoding="UTF-8"?>
<svg width="38px" height="35px" viewBox="0 0 38 35" version="1.1" xmlns="http://www.w3.org/2000/svg" xmlns:xlink="http://www.w3.org/1999/xlink">
    <!-- Generator: Sketch 43.1 (39012) - http://www.bohemiancoding.com/sketch -->
    <title>42-light-sleet-moon</title>
    <desc>Created with Sketch.</desc>
    <defs></defs>
    <g id="Page-1" stroke="none" stroke-width="1" fill="none" fill-rule="evenodd">
        <g id="Artboard" transform="translate(-197.000000, -513.000000)" stroke="#FFFFFF" stroke-width="2">
            <g id="42-light-sleet-moon" transform="translate(198.000000, 514.000000)">
                <path d="M6,15 C6,9.478 10.478,5 16,5 C21.522,5 26,9.478 26,15" id="Stroke-544"></path>
                <path d="M30,27 C33.313,27 36,24.313 36,21 C36,17.687 33.313,15 30,15 L26,15" id="Stroke-546" stroke-linecap="round"></path>
                <path d="M12,21 C12,17.687 9.313,15 6,15 C2.687,15 0,17.687 0,21 C0,24.313 2.687,27 6,27" id="Stroke-548" stroke-linecap="round"></path>
                <path d="M24,28 C24,29.657 22.657,31 21,31 C19.343,31 18,29.657 18,28 C18,26.343 19.343,25 21,25 C22.657,25 24,26.343 24,28 Z" id="Stroke-550" stroke-linecap="round"></path>
                <path d="M21,23 L21,25" id="Stroke-552" stroke-linecap="round"></path>
                <path d="M16.2373,25.25 L17.9683,26.25" id="Stroke-554" stroke-linecap="round"></path>
                <path d="M16.2373,30.75 L17.9683,29.75" id="Stroke-556" stroke-linecap="round"></path>
                <path d="M21,33 L21,31" id="Stroke-558" stroke-linecap="round"></path>
                <path d="M25.7627,30.75 L24.0317,29.75" id="Stroke-560" stroke-linecap="round"></path>
                <path d="M25.7627,25.25 L24.0317,26.25" id="Stroke-562" stroke-linecap="round"></path>
                <path d="M12,25 L12,27" id="Stroke-592" stroke-linecap="round"></path>
                <path d="M12,31 L12,33" id="Stroke-594" stroke-linecap="round"></path>
                <path d="M31.928,15 C34.056,13.563 35.455,11.128 35.455,8.366 C35.455,8.278 35.446,8.194 35.443,8.107 C34.806,8.271 34.143,8.366 33.455,8.366 C29.124,8.366 25.606,4.923 25.468,0.625 C22.963,1.267 20.929,3.087 20,5.461" id="Stroke-624"></path>
            </g>
        </g>
    </g>
</svg>