<?xml version="1.0" encoding="UTF-8"?>
<svg width="38px" height="30px" viewBox="0 0 38 30" version="1.1" xmlns="http://www.w3.org/2000/svg" xmlns:xlink="http://www.w3.org/1999/xlink">
    <!-- Generator: Sketch 43.1 (39012) - http://www.bohemiancoding.com/sketch -->
    <title>09-light-rain</title>
    <desc>Created with Sketch.</desc>
    <defs></defs>
    <g id="Page-1" stroke="none" stroke-width="1" fill="none" fill-rule="evenodd">
        <g id="Artboard" transform="translate(-579.000000, -111.000000)" stroke="#FFFFFF" stroke-width="2">
            <g id="09-light-rain" transform="translate(580.000000, 112.000000)">
                <path d="M6,10 C6,4.477 10.477,0 16,0 C21.523,0 26,4.477 26,10" id="Stroke-15"></path>
                <path d="M30,22 C33.313,22 36,19.313 36,16 C36,12.687 33.313,10 30,10 L26,10" id="Stroke-17" stroke-linecap="round"></path>
                <path d="M12,16 C12,12.687 9.313,10 6,10 C2.687,10 0,12.687 0,16 C0,19.313 2.687,22 6,22" id="Stroke-19" stroke-linecap="round"></path>
                <path d="M12,20 L12,22" id="Stroke-21" stroke-linecap="round"></path>
                <path d="M12,26 L12,28" id="Stroke-23" stroke-linecap="round"></path>
                <path d="M18,20 L18,22" id="Stroke-25" stroke-linecap="round"></path>
                <path d="M18,26 L18,28" id="Stroke-27" stroke-linecap="round"></path>
                <path d="M24,20 L24,22" id="Stroke-29" stroke-linecap="round"></path>
                <path d="M24,26 L24,28" id="Stroke-31" stroke-linecap="round"></path>
            </g>
        </g>
    </g>
</svg>