<?xml version="1.0" encoding="UTF-8"?>
<svg width="42px" height="38px" viewBox="0 0 42 38" version="1.1" xmlns="http://www.w3.org/2000/svg" xmlns:xlink="http://www.w3.org/1999/xlink">
    <!-- Generator: Sketch 43.1 (39012) - http://www.bohemiancoding.com/sketch -->
    <title>06-light-rain-thunder-sun</title>
    <desc>Created with Sketch.</desc>
    <defs></defs>
    <g id="Page-1" stroke="none" stroke-width="1" fill="none" fill-rule="evenodd">
        <g id="Artboard" transform="translate(-393.000000, -104.000000)" stroke="#FFFFFF" stroke-width="2">
            <g id="06-light-rain-thunder-sun" transform="translate(394.000000, 105.000000)">
                <path d="M19.9209,8.7993 C21.3889,7.0863 23.5669,6.0003 25.9999,6.0003 C30.4179,6.0003 33.9999,9.5813 33.9999,14.0003 C33.9999,15.7013 33.4689,17.2783 32.5639,18.5753" id="Stroke-213"></path>
                <path d="M26,0 L26,2" id="Stroke-215" stroke-linecap="round"></path>
                <path d="M40,14 L38,14" id="Stroke-217" stroke-linecap="round"></path>
                <path d="M35.8994,4.1006 L34.4854,5.5146" id="Stroke-219" stroke-linecap="round"></path>
                <path d="M6,18 C6,12.477 10.478,8 16,8 C21.522,8 26,12.477 26,18" id="Stroke-221"></path>
                <path d="M30,30 C33.313,30 36,27.313 36,24 C36,20.687 33.313,18 30,18 L26,18" id="Stroke-223" stroke-linecap="round"></path>
                <path d="M12,24 C12,20.687 9.313,18 6,18 C2.687,18 0,20.687 0,24 C0,27.313 2.687,30 6,30" id="Stroke-225" stroke-linecap="round"></path>
                <polyline id="Stroke-227" stroke-linecap="round" stroke-linejoin="round" points="24 24 22 30 26 30 24 36"></polyline>
                <path d="M18,28 L18,30" id="Stroke-592" stroke-linecap="round"></path>
                <path d="M18,34 L18,36" id="Stroke-594" stroke-linecap="round"></path>
                <path d="M14,28 L14,30" id="Stroke-592" stroke-linecap="round"></path>
                <path d="M14,34 L14,36" id="Stroke-594" stroke-linecap="round"></path>
                <path d="M10,28 L10,30" id="Stroke-592" stroke-linecap="round"></path>
                <path d="M10,34 L10,36" id="Stroke-594" stroke-linecap="round"></path>
            </g>
        </g>
    </g>
</svg>