<?xml version="1.0" encoding="UTF-8"?>
<svg width="38px" height="30px" viewBox="0 0 38 30" version="1.1" xmlns="http://www.w3.org/2000/svg" xmlns:xlink="http://www.w3.org/1999/xlink">
    <!-- Generator: Sketch 43.1 (39012) - http://www.bohemiancoding.com/sketch -->
    <title>12-sleet</title>
    <desc>Created with Sketch.</desc>
    <defs></defs>
    <g id="Page-1" stroke="none" stroke-width="1" fill="none" fill-rule="evenodd">
        <g id="Artboard" transform="translate(-755.000000, -111.000000)" stroke="#FFFFFF" stroke-width="2">
            <g id="12-sleet" transform="translate(756.000000, 112.000000)">
                <path d="M6,10 C6,4.478 10.478,0 16,0 C21.522,0 26,4.478 26,10" id="Stroke-544"></path>
                <path d="M30,22 C33.313,22 36,19.313 36,16 C36,12.687 33.313,10 30,10 L26,10" id="Stroke-546" stroke-linecap="round"></path>
                <path d="M12,16 C12,12.687 9.313,10 6,10 C2.687,10 0,12.687 0,16 C0,19.313 2.687,22 6,22" id="Stroke-548" stroke-linecap="round"></path>
                <path d="M25,23 C25,24.657 23.657,26 22,26 C20.343,26 19,24.657 19,23 C19,21.343 20.343,20 22,20 C23.657,20 25,21.343 25,23 Z" id="Stroke-550" stroke-linecap="round"></path>
                <path d="M22,18 L22,20" id="Stroke-552" stroke-linecap="round"></path>
                <path d="M17.2373,20.25 L18.9683,21.25" id="Stroke-554" stroke-linecap="round"></path>
                <path d="M17.2373,25.75 L18.9683,24.75" id="Stroke-556" stroke-linecap="round"></path>
                <path d="M22,28 L22,26" id="Stroke-558" stroke-linecap="round"></path>
                <path d="M26.7627,25.75 L25.0317,24.75" id="Stroke-560" stroke-linecap="round"></path>
                <path d="M26.7627,20.25 L25.0317,21.25" id="Stroke-562" stroke-linecap="round"></path>
                <path d="M9,20 L9,22" id="Stroke-592" stroke-linecap="round"></path>
                <path d="M9,26 L9,28" id="Stroke-594" stroke-linecap="round"></path>
                <path d="M13,20 L13,22" id="Stroke-592" stroke-linecap="round"></path>
                <path d="M13,26 L13,28" id="Stroke-594" stroke-linecap="round"></path>
            </g>
        </g>
    </g>
</svg>