<?xml version="1.0" encoding="UTF-8"?>
<svg width="40px" height="40px" viewBox="0 0 40 40" version="1.1" xmlns="http://www.w3.org/2000/svg" xmlns:xlink="http://www.w3.org/1999/xlink">
    <!-- Generator: Sketch 43.1 (39012) - http://www.bohemiancoding.com/sketch -->
    <title>01-sun</title>
    <desc>Created with Sketch.</desc>
    <defs></defs>
    <g id="Page-1" stroke="none" stroke-width="1" fill="none" fill-rule="evenodd" stroke-linecap="round">
        <g id="Artboard" transform="translate(-70.000000, -105.000000)" stroke="#FFFFFF" stroke-width="2">
            <g id="01-sun" transform="translate(71.000000, 106.000000)">
                <path d="M19,0 L19,4" id="Stroke-357"></path>
                <path d="M5.5649,5.5649 L8.3939,8.3939" id="Stroke-358"></path>
                <path d="M0,19 L4,19" id="Stroke-359"></path>
                <path d="M5.5649,32.4351 L8.3939,29.6061" id="Stroke-360"></path>
                <path d="M19,38 L19,34" id="Stroke-361"></path>
                <path d="M32.4346,32.4351 L29.6066,29.6061" id="Stroke-362"></path>
                <path d="M38,19 L34,19" id="Stroke-363"></path>
                <path d="M32.4346,5.5649 L29.6066,8.3939" id="Stroke-364"></path>
                <path d="M28,19 C28,23.971 23.971,28 19,28 C14.029,28 10,23.971 10,19 C10,14.029 14.029,10 19,10 C23.971,10 28,14.029 28,19 Z" id="Stroke-365"></path>
            </g>
        </g>
    </g>
</svg>