<?xml version="1.0" encoding="UTF-8"?>
<svg width="48px" height="37px" viewBox="0 0 48 37" version="1.1" xmlns="http://www.w3.org/2000/svg" xmlns:xlink="http://www.w3.org/1999/xlink">
    <!-- Generator: Sketch 43.1 (39012) - http://www.bohemiancoding.com/sketch -->
    <title>02-light-cloud-moon</title>
    <desc>Created with Sketch.</desc>
    <defs></defs>
    <g id="Page-1" stroke="none" stroke-width="1" fill="none" fill-rule="evenodd">
        <g id="Artboard" transform="translate(-130.000000, -159.000000)" stroke="#FFFFFF" stroke-width="2">
            <g id="02-light-cloud-moon" transform="translate(131.000000, 161.000000)">
                <path d="M31.25977,-6.31088724e-30 C25.6291225,0.758042558 20.9576681,5.17443078 20.1281338,11.076874 C19.1289124,18.1867034 24.0825389,24.7603879 31.1923683,25.7596092 C37.0948116,26.5891435 42.6277438,23.3159749 44.9084378,18.112394 C43.7566494,18.2674569 42.564725,18.2694416 41.3573389,18.0997545 C34.2475095,17.1005332 29.2938829,10.5268487 30.2931043,3.41701933 C30.4627913,2.20963321 30.793238,1.06442893 31.25977,-2.84217094e-14 L31.25977,-6.31088724e-30 Z" id="Combined-Shape"></path>
                <path d="M6,26 C6,22.6862 8.6862,20 12,20 C15.3138,20 18,22.6862 18,26" id="Stroke-1"></path>
                <path d="M8.66666667,29.3333333 C8.66666667,26.9406111 6.72605556,25 4.33333333,25 C1.94061111,25 0,26.9406111 0,29.3333333 C0,31.7260556 1.94061111,33.6666667 4.33333333,33.6666667 L21.6666667,33.6666667 C24.0593889,33.6666667 26,31.7260556 26,29.3333333 C26,26.9406111 24.0593889,25 21.6666667,25 L18.7777778,25" id="Stroke-3" stroke-linecap="round"></path>
            </g>
        </g>
    </g>
</svg>