<?xml version="1.0" encoding="UTF-8"?>
<svg width="40px" height="34px" viewBox="0 0 40 34" version="1.1" xmlns="http://www.w3.org/2000/svg" xmlns:xlink="http://www.w3.org/1999/xlink">
    <!-- Generator: Sketch 43.1 (39012) - http://www.bohemiancoding.com/sketch -->
    <title>29-heavy-snow-thunder-moon</title>
    <desc>Created with Sketch.</desc>
    <defs></defs>
    <g id="Page-1" stroke="none" stroke-width="1" fill="none" fill-rule="evenodd">
        <g id="Artboard" transform="translate(-634.000000, -335.000000)" stroke="#FFFFFF" stroke-width="2">
            <g id="29-heavy-snow-thunder-moon" transform="translate(635.000000, 337.000000)">
                <path d="M6,13 C6,7.478 10.477,3 16,3 C21.523,3 26,7.478 26,13" id="Stroke-85"></path>
                <path d="M30,25 C33.313,25 36,22.313 36,19 C36,15.687 33.313,13 30,13 L26,13" id="Stroke-87" stroke-linecap="round"></path>
                <path d="M12,19 C12,15.687 9.313,13 6,13 C2.687,13 0,15.687 0,19 C0,22.313 2.687,25 6,25" id="Stroke-89" stroke-linecap="round"></path>
                <path d="M17,26.5 C17,27.8808333 15.8808333,29 14.5,29 C13.1191667,29 12,27.8808333 12,26.5 C12,25.1191667 13.1191667,24 14.5,24 C15.8808333,24 17,25.1191667 17,26.5 Z" id="Stroke-93" stroke-linecap="round"></path>
                <path d="M14.5,22 L14.5,24" id="Stroke-95" stroke-linecap="round"></path>
                <path d="M11,24 L12.2990286,24.7500165" id="Stroke-97" stroke-linecap="round"></path>
                <path d="M17,28 L18.2990286,28.7500165" id="Stroke-97" stroke-linecap="round"></path>
                <path d="M14.5,31 L14.5,30" id="Stroke-101" stroke-linecap="round"></path>
                <path d="M18.3340191,24 L17,25" id="Stroke-105" stroke-linecap="round"></path>
                <path d="M12.3340191,28 L11,29" id="Stroke-105" stroke-linecap="round"></path>
                <polyline id="Stroke-227" stroke-linecap="round" stroke-linejoin="round" points="24 19 22 25 26 25 24 31"></polyline>
                <path d="M33.928,14.375 C36.056,12.938 37.455,10.503 37.455,7.741 C37.455,7.653 37.446,7.569 37.443,7.482 C36.806,7.646 36.143,7.741 35.455,7.741 C31.124,7.741 27.606,4.298 27.468,0 C24.963,0.642 22.929,2.462 22,4.836" id="Stroke-624"></path>
            </g>
        </g>
    </g>
</svg>