<?xml version="1.0" encoding="UTF-8"?>
<svg width="41px" height="33px" viewBox="0 0 41 33" version="1.1" xmlns="http://www.w3.org/2000/svg" xmlns:xlink="http://www.w3.org/1999/xlink">
    <!-- Generator: Sketch 43.1 (39012) - http://www.bohemiancoding.com/sketch -->
    <title>45-heavy-snow-moon</title>
    <desc>Created with Sketch.</desc>
    <defs></defs>
    <g id="Page-1" stroke="none" stroke-width="1" fill="none" fill-rule="evenodd">
        <g id="Artboard" transform="translate(-393.000000, -517.000000)" stroke="#FFFFFF" stroke-width="2">
            <g id="45-heavy-snow-moon" transform="translate(394.000000, 518.000000)">
                <path d="M6,13 C6,7.478 10.477,3 16,3 C21.523,3 26,7.478 26,13" id="Stroke-85"></path>
                <path d="M30,25 C33.313,25 36,22.313 36,19 C36,15.687 33.313,13 30,13 L26,13" id="Stroke-87" stroke-linecap="round"></path>
                <path d="M12,19 C12,15.687 9.313,13 6,13 C2.687,13 0,15.687 0,19 C0,22.313 2.687,25 6,25" id="Stroke-89" stroke-linecap="round"></path>
                <path d="M16,26.5 C16,27.8808333 14.8808333,29 13.5,29 C12.1191667,29 11,27.8808333 11,26.5 C11,25.1191667 12.1191667,24 13.5,24 C14.8808333,24 16,25.1191667 16,26.5 Z" id="Stroke-93" stroke-linecap="round"></path>
                <path d="M13.5,22 L13.5,24" id="Stroke-95" stroke-linecap="round"></path>
                <path d="M10,24 L11.2990286,24.7500165" id="Stroke-97" stroke-linecap="round"></path>
                <path d="M16,28 L17.2990286,28.7500165" id="Stroke-97" stroke-linecap="round"></path>
                <path d="M13.5,31 L13.5,30" id="Stroke-101" stroke-linecap="round"></path>
                <path d="M17.3340191,24 L16,25" id="Stroke-105" stroke-linecap="round"></path>
                <path d="M11.3340191,28 L10,29" id="Stroke-105" stroke-linecap="round"></path>
                <path d="M26,23.5 C26,24.8808333 24.8808333,26 23.5,26 C22.1191667,26 21,24.8808333 21,23.5 C21,22.1191667 22.1191667,21 23.5,21 C24.8808333,21 26,22.1191667 26,23.5 Z" id="Stroke-93" stroke-linecap="round"></path>
                <path d="M23.5,19 L23.5,21" id="Stroke-95" stroke-linecap="round"></path>
                <path d="M20,21 L21.2990286,21.7500165" id="Stroke-97" stroke-linecap="round"></path>
                <path d="M26,25 L27.2990286,25.7500165" id="Stroke-97" stroke-linecap="round"></path>
                <path d="M23.5,28 L23.5,27" id="Stroke-101" stroke-linecap="round"></path>
                <path d="M27.3340191,21 L26,22" id="Stroke-105" stroke-linecap="round"></path>
                <path d="M21.3340191,25 L20,26" id="Stroke-105" stroke-linecap="round"></path>
                <path d="M34.928,15 C37.056,13.563 38.455,11.128 38.455,8.366 C38.455,8.278 38.446,8.194 38.443,8.107 C37.806,8.271 37.143,8.366 36.455,8.366 C32.124,8.366 28.606,4.923 28.468,0.625 C25.963,1.267 23.929,3.087 23,5.461" id="Stroke-624"></path>
            </g>
        </g>
    </g>
</svg>