<?xml version="1.0" encoding="UTF-8"?>
<svg width="42px" height="37px" viewBox="0 0 42 37" version="1.1" xmlns="http://www.w3.org/2000/svg" xmlns:xlink="http://www.w3.org/1999/xlink">
    <!-- Generator: Sketch 43.1 (39012) - http://www.bohemiancoding.com/sketch -->
    <title>43-heavy-sleet-sun</title>
    <desc>Created with Sketch.</desc>
    <defs></defs>
    <g id="Page-1" stroke="none" stroke-width="1" fill="none" fill-rule="evenodd">
        <g id="Artboard" transform="translate(-264.000000, -463.000000)" stroke="#FFFFFF" stroke-width="2">
            <g id="43-heavy-sleet-sun" transform="translate(265.000000, 464.000000)">
                <path d="M19.9209,8.7988 C21.3889,7.0858 23.5669,5.9998 25.9999,5.9998 C30.4179,5.9998 33.9999,9.5818 33.9999,13.9998 C33.9999,15.7008 33.4689,17.2788 32.5639,18.5748" id="Stroke-536"></path>
                <path d="M26,0 L26,2" id="Stroke-538" stroke-linecap="round"></path>
                <path d="M40,14 L38,14" id="Stroke-540" stroke-linecap="round"></path>
                <path d="M35.8994,4.1006 L34.4854,5.5146" id="Stroke-542" stroke-linecap="round"></path>
                <path d="M6,18 C6,12.478 10.478,8 16,8 C21.522,8 26,12.478 26,18" id="Stroke-544"></path>
                <path d="M30,30 C33.313,30 36,27.313 36,24 C36,20.687 33.313,18 30,18 L26,18" id="Stroke-546" stroke-linecap="round"></path>
                <path d="M12,24 C12,20.687 9.313,18 6,18 C2.687,18 0,20.687 0,24 C0,27.313 2.687,30 6,30" id="Stroke-548" stroke-linecap="round"></path>
                <path d="M25,30 C25,31.657 23.657,33 22,33 C20.343,33 19,31.657 19,30 C19,28.343 20.343,27 22,27 C23.657,27 25,28.343 25,30 Z" id="Stroke-550" stroke-linecap="round"></path>
                <path d="M22,25 L22,27" id="Stroke-552" stroke-linecap="round"></path>
                <path d="M17.2373,27.25 L18.9683,28.25" id="Stroke-554" stroke-linecap="round"></path>
                <path d="M17.2373,32.75 L18.9683,31.75" id="Stroke-556" stroke-linecap="round"></path>
                <path d="M22,35 L22,33" id="Stroke-558" stroke-linecap="round"></path>
                <path d="M26.7627,32.75 L25.0317,31.75" id="Stroke-560" stroke-linecap="round"></path>
                <path d="M26.7627,27.25 L25.0317,28.25" id="Stroke-562" stroke-linecap="round"></path>
                <path d="M10,28 L10,35" id="Stroke-433" stroke-linecap="round"></path>
                <path d="M14,28 L14,32" id="Stroke-435" stroke-linecap="round"></path>
            </g>
        </g>
    </g>
</svg>