<?xml version="1.0" encoding="UTF-8"?>
<svg width="40px" height="34px" viewBox="0 0 40 34" version="1.1" xmlns="http://www.w3.org/2000/svg" xmlns:xlink="http://www.w3.org/1999/xlink">
    <!-- Generator: Sketch 43.1 (39012) - http://www.bohemiancoding.com/sketch -->
    <title>27-heavy-sleet-thunder-moon</title>
    <desc>Created with Sketch.</desc>
    <defs></defs>
    <g id="Page-1" stroke="none" stroke-width="1" fill="none" fill-rule="evenodd">
        <g id="Artboard" transform="translate(-519.000000, -336.000000)" stroke="#FFFFFF" stroke-width="2">
            <g id="27-heavy-sleet-thunder-moon" transform="translate(520.000000, 338.000000)">
                <path d="M6,13 C6,7.478 10.477,3 16,3 C21.523,3 26,7.478 26,13" id="Stroke-85"></path>
                <path d="M30,25 C33.313,25 36,22.313 36,19 C36,15.687 33.313,13 30,13 L26,13" id="Stroke-87" stroke-linecap="round"></path>
                <path d="M12,19 C12,15.687 9.313,13 6,13 C2.687,13 0,15.687 0,19 C0,22.313 2.687,25 6,25" id="Stroke-89" stroke-linecap="round"></path>
                <path d="M15,26.5 C15,27.8808333 13.8808333,29 12.5,29 C11.1191667,29 10,27.8808333 10,26.5 C10,25.1191667 11.1191667,24 12.5,24 C13.8808333,24 15,25.1191667 15,26.5 Z" id="Stroke-93" stroke-linecap="round"></path>
                <path d="M12.5,22 L12.5,24" id="Stroke-95" stroke-linecap="round"></path>
                <path d="M9,24 L10.2990286,24.7500165" id="Stroke-97" stroke-linecap="round"></path>
                <path d="M15,28 L16.2990286,28.7500165" id="Stroke-97" stroke-linecap="round"></path>
                <path d="M12.5,31 L12.5,30" id="Stroke-101" stroke-linecap="round"></path>
                <path d="M16.3340191,24 L15,25" id="Stroke-105" stroke-linecap="round"></path>
                <path d="M10.3340191,28 L9,29" id="Stroke-105" stroke-linecap="round"></path>
                <polyline id="Stroke-227" stroke-linecap="round" stroke-linejoin="round" points="25 19 23 25 27 25 25 31"></polyline>
                <path d="M33.928,14.375 C36.056,12.938 37.455,10.503 37.455,7.741 C37.455,7.653 37.446,7.569 37.443,7.482 C36.806,7.646 36.143,7.741 35.455,7.741 C31.124,7.741 27.606,4.298 27.468,0 C24.963,0.642 22.929,2.462 22,4.836" id="Stroke-624"></path>
                <path d="M19.4650095,23 L19.4650095,25" id="Stroke-592" stroke-linecap="round"></path>
                <path d="M19.4650095,29 L19.4650095,31" id="Stroke-594" stroke-linecap="round"></path>
            </g>
        </g>
    </g>
</svg>