<?xml version="1.0" encoding="UTF-8"?>
<svg width="43px" height="38px" viewBox="0 0 43 38" version="1.1" xmlns="http://www.w3.org/2000/svg" xmlns:xlink="http://www.w3.org/1999/xlink">
    <!-- Generator: Sketch 43.1 (39012) - http://www.bohemiancoding.com/sketch -->
    <title>45-heavy-snow-sun</title>
    <desc>Created with Sketch.</desc>
    <defs></defs>
    <g id="Page-1" stroke="none" stroke-width="1" fill="none" fill-rule="evenodd">
        <g id="Artboard" transform="translate(-392.000000, -463.000000)" stroke="#FFFFFF" stroke-width="2">
            <g id="45-heavy-snow-sun" transform="translate(393.000000, 464.000000)">
                <path d="M6,18 C6,12.478 10.477,8 16,8 C21.523,8 26,12.478 26,18" id="Stroke-85"></path>
                <path d="M30,30 C33.313,30 36,27.313 36,24 C36,20.687 33.313,18 30,18 L26,18" id="Stroke-87" stroke-linecap="round"></path>
                <path d="M12,24 C12,20.687 9.313,18 6,18 C2.687,18 0,20.687 0,24 C0,27.313 2.687,30 6,30" id="Stroke-89" stroke-linecap="round"></path>
                <path d="M16,31.5 C16,32.8808333 14.8808333,34 13.5,34 C12.1191667,34 11,32.8808333 11,31.5 C11,30.1191667 12.1191667,29 13.5,29 C14.8808333,29 16,30.1191667 16,31.5 Z" id="Stroke-93" stroke-linecap="round"></path>
                <path d="M13.5,27 L13.5,29" id="Stroke-95" stroke-linecap="round"></path>
                <path d="M10,29 L11.2990286,29.7500165" id="Stroke-97" stroke-linecap="round"></path>
                <path d="M16,33 L17.2990286,33.7500165" id="Stroke-97" stroke-linecap="round"></path>
                <path d="M13.5,36 L13.5,35" id="Stroke-101" stroke-linecap="round"></path>
                <path d="M17.3340191,29 L16,30" id="Stroke-105" stroke-linecap="round"></path>
                <path d="M11.3340191,33 L10,34" id="Stroke-105" stroke-linecap="round"></path>
                <path d="M26,28.5 C26,29.8808333 24.8808333,31 23.5,31 C22.1191667,31 21,29.8808333 21,28.5 C21,27.1191667 22.1191667,26 23.5,26 C24.8808333,26 26,27.1191667 26,28.5 Z" id="Stroke-93" stroke-linecap="round"></path>
                <path d="M23.5,24 L23.5,26" id="Stroke-95" stroke-linecap="round"></path>
                <path d="M20,26 L21.2990286,26.7500165" id="Stroke-97" stroke-linecap="round"></path>
                <path d="M26,30 L27.2990286,30.7500165" id="Stroke-97" stroke-linecap="round"></path>
                <path d="M23.5,33 L23.5,32" id="Stroke-101" stroke-linecap="round"></path>
                <path d="M27.3340191,26 L26,27" id="Stroke-105" stroke-linecap="round"></path>
                <path d="M21.3340191,30 L20,31" id="Stroke-105" stroke-linecap="round"></path>
                <path d="M21,9.5115 C22.468,7.7985 24.646,6.7125 27.079,6.7125 C31.497,6.7125 35.079,10.2945 35.079,14.7125 C35.079,16.4135 34.548,17.9915 33.643,19.2875" id="Stroke-536"></path>
                <path d="M27,0.7125 L27,2.7125" id="Stroke-538" stroke-linecap="round"></path>
                <path d="M41,14.7125 L39,14.7125" id="Stroke-540" stroke-linecap="round"></path>
                <path d="M37.414,4.7125 L36,6.1265" id="Stroke-542" stroke-linecap="round"></path>
            </g>
        </g>
    </g>
</svg>