<?xml version="1.0" encoding="UTF-8"?>
<svg width="38px" height="30px" viewBox="0 0 38 30" version="1.1" xmlns="http://www.w3.org/2000/svg" xmlns:xlink="http://www.w3.org/1999/xlink">
    <!-- Generator: Sketch 43.1 (39012) - http://www.bohemiancoding.com/sketch -->
    <title>49-light-snow</title>
    <desc>Created with Sketch.</desc>
    <defs></defs>
    <g id="Page-1" stroke="none" stroke-width="1" fill="none" fill-rule="evenodd">
        <g id="Artboard" transform="translate(-631.000000, -471.000000)" stroke="#FFFFFF" stroke-width="2">
            <g id="49-light-snow" transform="translate(632.000000, 472.000000)">
                <path d="M6,10 C6,4.478 10.477,0 16,0 C21.523,0 26,4.478 26,10" id="Stroke-85"></path>
                <path d="M30,22 C33.313,22 36,19.313 36,16 C36,12.687 33.313,10 30,10 L26,10" id="Stroke-87" stroke-linecap="round"></path>
                <path d="M12,16 C12,12.687 9.313,10 6,10 C2.687,10 0,12.687 0,16 C0,19.313 2.687,22 6,22" id="Stroke-89" stroke-linecap="round"></path>
                <path d="M21,23 C21,24.657 19.657,26 18,26 C16.343,26 15,24.657 15,23 C15,21.343 16.343,20 18,20 C19.657,20 21,21.343 21,23 Z" id="Stroke-93" stroke-linecap="round"></path>
                <path d="M18,18 L18,20" id="Stroke-95" stroke-linecap="round"></path>
                <path d="M13,20 L14.732,21" id="Stroke-97" stroke-linecap="round"></path>
                <path d="M13,26 L14.732,25" id="Stroke-99" stroke-linecap="round"></path>
                <path d="M18,28 L18,26" id="Stroke-101" stroke-linecap="round"></path>
                <path d="M22.732,26 L21,25" id="Stroke-103" stroke-linecap="round"></path>
                <path d="M22.732,20 L21,21" id="Stroke-105" stroke-linecap="round"></path>
            </g>
        </g>
    </g>
</svg>