<?xml version="1.0" encoding="UTF-8"?>
<svg width="38px" height="30px" viewBox="0 0 38 30" version="1.1" xmlns="http://www.w3.org/2000/svg" xmlns:xlink="http://www.w3.org/1999/xlink">
    <!-- Generator: Sketch 43.1 (39012) - http://www.bohemiancoding.com/sketch -->
    <title>47-light-sleet</title>
    <desc>Created with Sketch.</desc>
    <defs></defs>
    <g id="Page-1" stroke="none" stroke-width="1" fill="none" fill-rule="evenodd">
        <g id="Artboard" transform="translate(-520.000000, -470.000000)" stroke="#FFFFFF" stroke-width="2">
            <g id="47-light-sleet" transform="translate(521.000000, 471.000000)">
                <path d="M6,10 C6,4.478 10.478,0 16,0 C21.522,0 26,4.478 26,10" id="Stroke-544"></path>
                <path d="M30,22 C33.313,22 36,19.313 36,16 C36,12.687 33.313,10 30,10 L26,10" id="Stroke-546" stroke-linecap="round"></path>
                <path d="M12,16 C12,12.687 9.313,10 6,10 C2.687,10 0,12.687 0,16 C0,19.313 2.687,22 6,22" id="Stroke-548" stroke-linecap="round"></path>
                <path d="M24,23 C24,24.657 22.657,26 21,26 C19.343,26 18,24.657 18,23 C18,21.343 19.343,20 21,20 C22.657,20 24,21.343 24,23 Z" id="Stroke-550" stroke-linecap="round"></path>
                <path d="M21,18 L21,20" id="Stroke-552" stroke-linecap="round"></path>
                <path d="M16.2373,20.25 L17.9683,21.25" id="Stroke-554" stroke-linecap="round"></path>
                <path d="M16.2373,25.75 L17.9683,24.75" id="Stroke-556" stroke-linecap="round"></path>
                <path d="M21,28 L21,26" id="Stroke-558" stroke-linecap="round"></path>
                <path d="M25.7627,25.75 L24.0317,24.75" id="Stroke-560" stroke-linecap="round"></path>
                <path d="M25.7627,20.25 L24.0317,21.25" id="Stroke-562" stroke-linecap="round"></path>
                <path d="M11,20 L11,22" id="Stroke-592" stroke-linecap="round"></path>
                <path d="M11,26 L11,28" id="Stroke-594" stroke-linecap="round"></path>
            </g>
        </g>
    </g>
</svg>