<?xml version="1.0" encoding="UTF-8"?>
<svg width="42px" height="37px" viewBox="0 0 42 37" version="1.1" xmlns="http://www.w3.org/2000/svg" xmlns:xlink="http://www.w3.org/1999/xlink">
    <!-- Generator: Sketch 43.1 (39012) - http://www.bohemiancoding.com/sketch -->
    <title>44-light-snow-sun</title>
    <desc>Created with Sketch.</desc>
    <defs></defs>
    <g id="Page-1" stroke="none" stroke-width="1" fill="none" fill-rule="evenodd">
        <g id="Artboard" transform="translate(-332.000000, -463.000000)" stroke="#FFFFFF" stroke-width="2">
            <g id="44-light-snow-sun" transform="translate(333.000000, 464.000000)">
                <path d="M19.9209,8.7988 C21.3889,7.0858 23.5669,5.9998 25.9999,5.9998 C30.4179,5.9998 33.9999,9.5818 33.9999,13.9998 C33.9999,15.7008 33.4689,17.2788 32.5639,18.5748" id="Stroke-536"></path>
                <path d="M26,0 L26,2" id="Stroke-538" stroke-linecap="round"></path>
                <path d="M40,14 L38,14" id="Stroke-540" stroke-linecap="round"></path>
                <path d="M35.8994,4.1006 L34.4854,5.5146" id="Stroke-542" stroke-linecap="round"></path>
                <path d="M6,18 C6,12.478 10.478,8 16,8 C21.522,8 26,12.478 26,18" id="Stroke-544"></path>
                <path d="M30,30 C33.313,30 36,27.313 36,24 C36,20.687 33.313,18 30,18 L26,18" id="Stroke-546" stroke-linecap="round"></path>
                <path d="M12,24 C12,20.687 9.313,18 6,18 C2.687,18 0,20.687 0,24 C0,27.313 2.687,30 6,30" id="Stroke-548" stroke-linecap="round"></path>
                <path d="M23,30 C23,31.657 21.657,33 20,33 C18.343,33 17,31.657 17,30 C17,28.343 18.343,27 20,27 C21.657,27 23,28.343 23,30 Z" id="Stroke-550" stroke-linecap="round"></path>
                <path d="M20,25 L20,27" id="Stroke-552" stroke-linecap="round"></path>
                <path d="M15.2373,27.25 L16.9683,28.25" id="Stroke-554" stroke-linecap="round"></path>
                <path d="M15.2373,32.75 L16.9683,31.75" id="Stroke-556" stroke-linecap="round"></path>
                <path d="M20,35 L20,33" id="Stroke-558" stroke-linecap="round"></path>
                <path d="M24.7627,32.75 L23.0317,31.75" id="Stroke-560" stroke-linecap="round"></path>
                <path d="M24.7627,27.25 L23.0317,28.25" id="Stroke-562" stroke-linecap="round"></path>
            </g>
        </g>
    </g>
</svg>