<?xml version="1.0" encoding="UTF-8"?>
<svg width="39px" height="28px" viewBox="0 0 39 28" version="1.1" xmlns="http://www.w3.org/2000/svg" xmlns:xlink="http://www.w3.org/1999/xlink">
    <!-- Generator: Sketch 43.1 (39012) - http://www.bohemiancoding.com/sketch -->
    <title>03-cloud-moon</title>
    <desc>Created with Sketch.</desc>
    <defs></defs>
    <g id="Page-1" stroke="none" stroke-width="1" fill="none" fill-rule="evenodd">
        <g id="Artboard" transform="translate(-196.000000, -165.000000)" stroke="#FFFFFF" stroke-width="2">
            <g id="03-cloud-moon" transform="translate(197.000000, 166.000000)">
                <path d="M6,14 C6,8.478 10.477,4 16,4 C21.523,4 26,8.478 26,14" id="Stroke-704"></path>
                <path d="M12,20 C12,16.687 9.313,14 6,14 C2.687,14 0,16.687 0,20 C0,23.313 2.687,26 6,26 L30,26 C33.313,26 36,23.313 36,20 C36,16.687 33.313,14 30,14 L26,14" id="Stroke-706" stroke-linecap="round"></path>
                <path d="M33.4727,14.6338 C35.6007,13.1968 36.9997,10.7618 36.9997,7.9998 C36.9997,7.9118 36.9897,7.8278 36.9867,7.7408 C36.3507,7.9048 35.6867,7.9998 34.9997,7.9998 C30.6687,7.9998 27.1507,4.5568 27.0137,0.2588 C24.5077,0.9008 22.4737,2.7208 21.5447,5.0948" id="Stroke-708"></path>
            </g>
        </g>
    </g>
</svg>