<?xml version="1.0" encoding="UTF-8"?>
<svg width="38px" height="34px" viewBox="0 0 38 34" version="1.1" xmlns="http://www.w3.org/2000/svg" xmlns:xlink="http://www.w3.org/1999/xlink">
    <!-- Generator: Sketch 43.1 (39012) - http://www.bohemiancoding.com/sketch -->
    <title>06-light-rain-thunder-moon</title>
    <desc>Created with Sketch.</desc>
    <defs></defs>
    <g id="Page-1" stroke="none" stroke-width="1" fill="none" fill-rule="evenodd">
        <g id="Artboard" transform="translate(-391.000000, -158.000000)" stroke="#FFFFFF" stroke-width="2">
            <g id="06-light-rain-thunder-moon" transform="translate(392.000000, 159.000000)">
                <path d="M6,14 C6,8.478 10.477,4 16,4 C21.523,4 26,8.478 26,14" id="Stroke-565"></path>
                <path d="M30,26 C33.313,26 36,23.313 36,20 C36,16.687 33.313,14 30,14 L26,14" id="Stroke-567" stroke-linecap="round"></path>
                <path d="M12,20 C12,16.687 9.313,14 6,14 C2.687,14 0,16.687 0,20 C0,23.313 2.687,26 6,26" id="Stroke-569" stroke-linecap="round"></path>
                <path d="M32.4727,14.6338 C34.6007,13.1968 35.9997,10.7618 35.9997,7.9998 C35.9997,7.9118 35.9897,7.8278 35.9867,7.7408 C35.3507,7.9048 34.6867,7.9998 33.9997,7.9998 C29.6687,7.9998 26.1507,4.5568 26.0137,0.2588 C23.5077,0.9008 21.4737,2.7208 20.5447,5.0948" id="Stroke-571"></path>
                <polyline id="Stroke-573" stroke-linecap="round" stroke-linejoin="round" points="24 20 22 26 26 26 24 32"></polyline>
                <path d="M14,24 L14,26" id="Stroke-592" stroke-linecap="round"></path>
                <path d="M14,30 L14,32" id="Stroke-594" stroke-linecap="round"></path>
                <path d="M18,24 L18,26" id="Stroke-592" stroke-linecap="round"></path>
                <path d="M18,30 L18,32" id="Stroke-594" stroke-linecap="round"></path>
                <path d="M10,24 L10,26" id="Stroke-592" stroke-linecap="round"></path>
                <path d="M10,30 L10,32" id="Stroke-594" stroke-linecap="round"></path>
            </g>
        </g>
    </g>
</svg>