<?xml version="1.0" encoding="UTF-8"?>
<svg width="39px" height="35px" viewBox="0 0 39 35" version="1.1" xmlns="http://www.w3.org/2000/svg" xmlns:xlink="http://www.w3.org/1999/xlink">
    <!-- Generator: Sketch 43.1 (39012) - http://www.bohemiancoding.com/sketch -->
    <title>08-snow-moon</title>
    <desc>Created with Sketch.</desc>
    <defs></defs>
    <g id="Page-1" stroke="none" stroke-width="1" fill="none" fill-rule="evenodd">
        <g id="Artboard" transform="translate(-518.000000, -157.000000)" stroke="#FFFFFF" stroke-width="2">
            <g id="08-snow-moon" transform="translate(519.000000, 159.000000)">
                <path d="M6,14 C6,8.478 10.478,4 16,4 C21.522,4 26,8.478 26,14" id="Stroke-544"></path>
                <path d="M30,26 C33.313,26 36,23.313 36,20 C36,16.687 33.313,14 30,14 L26,14" id="Stroke-546" stroke-linecap="round"></path>
                <path d="M12,20 C12,16.687 9.313,14 6,14 C2.687,14 0,16.687 0,20 C0,23.313 2.687,26 6,26" id="Stroke-548" stroke-linecap="round"></path>
                <path d="M32.928,14.375 C35.056,12.938 36.455,10.503 36.455,7.741 C36.455,7.653 36.446,7.569 36.443,7.482 C35.806,7.646 35.143,7.741 34.455,7.741 C30.124,7.741 26.606,4.298 26.468,0 C23.963,0.642 21.929,2.462 21,4.836" id="Stroke-624"></path>
                <path d="M26,24.5 C26,25.8808333 24.8808333,27 23.5,27 C22.1191667,27 21,25.8808333 21,24.5 C21,23.1191667 22.1191667,22 23.5,22 C24.8808333,22 26,23.1191667 26,24.5 Z" id="Stroke-93" stroke-linecap="round"></path>
                <path d="M23.5,20 L23.5,22" id="Stroke-95" stroke-linecap="round"></path>
                <path d="M20,22 L21.2990286,22.7500165" id="Stroke-97" stroke-linecap="round"></path>
                <path d="M26,26 L27.2990286,26.7500165" id="Stroke-97" stroke-linecap="round"></path>
                <path d="M23.5,29 L23.5,28" id="Stroke-101" stroke-linecap="round"></path>
                <path d="M27.3340191,22 L26,23" id="Stroke-105" stroke-linecap="round"></path>
                <path d="M21.3340191,26 L20,27" id="Stroke-105" stroke-linecap="round"></path>
                <path d="M16,27.5 C16,28.8808333 14.8808333,30 13.5,30 C12.1191667,30 11,28.8808333 11,27.5 C11,26.1191667 12.1191667,25 13.5,25 C14.8808333,25 16,26.1191667 16,27.5 Z" id="Stroke-93" stroke-linecap="round"></path>
                <path d="M13.5,23 L13.5,25" id="Stroke-95" stroke-linecap="round"></path>
                <path d="M10,25 L11.2990286,25.7500165" id="Stroke-97" stroke-linecap="round"></path>
                <path d="M16,29 L17.2990286,29.7500165" id="Stroke-97" stroke-linecap="round"></path>
                <path d="M13.5,32 L13.5,31" id="Stroke-101" stroke-linecap="round"></path>
                <path d="M17.3340191,25 L16,26" id="Stroke-105" stroke-linecap="round"></path>
                <path d="M11.3340191,29 L10,30" id="Stroke-105" stroke-linecap="round"></path>
            </g>
        </g>
    </g>
</svg>